<svg version="1.1" viewBox="0 0 215 215" xmlns="http://www.w3.org/2000/svg">
<g transform="translate(-.1971 -35.178)">
<g transform="translate(688.2 -344.79)">
<path d="m-580.29 582.01 61.552-8.1311v-41.929m-61.552-25.091v75.151l-61.811-8.1864v-41.998m127.7-36.45-21.461-5.6056m-44.427 17.088 14.882 34.088 56.673-11.404-5.6669-34.167-65.889 11.483m-48.376-16.167-17.934 5.2565-5.6823 33.813 56.36 11.161 15.631-34.064-66.301-10.802" fill="none" stroke="currentColor" stroke-linecap="round" stroke-linejoin="round" stroke-width="6" style="paint-order:stroke markers fill"/>
<path transform="matrix(.49076 0 0 .49076 -494.24 74.676)" d="m-131.74 718.34c-0.72314-1e-4 -1.4429 0.27312-1.9961 0.82617-2.3087 2.3077-5.839 2.9141-8.7852 1.5078-1.4116-0.67426-3.0855-0.082-3.7598 1.3301-0.67423 1.4115-0.0816 3.0855 1.3301 3.7598 1.833 0.87522 3.7932 1.3008 5.7422 1.3008 3.4733 0 6.9025-1.3506 9.4629-3.9102 1.1063-1.106 1.108-2.8842 2e-3 -3.9902a0.55653 0.55653 0 0 1-2e-3 0c-0.55225-0.55264-1.2708-0.82413-1.9941-0.82422z" fill="currentColor" stroke-width=".52356"/>
<path transform="matrix(.49076 0 0 .49076 -494.24 74.676)" d="m-107.07 642.37c-1.3303 0-2.6764 0.5146-3.6875 1.5254l-39.57 39.57-9.5547 9.5566c-7.7862 7.7858-10.4 19.226-7.1387 29.525l-6.8359 6.0684c-2.1367 1.8967-2.3361 5.2219-0.43946 7.3594 1.0229 1.1526 2.4656 1.752 3.9004 1.752 1.2282 0 2.4746-0.43867 3.4609-1.3145l9.502-8.4355c1.7303-1.5365 2.2414-4.055 1.2441-6.1445-3.4334-7.1901-1.9552-15.804 3.6797-21.438l5.8672-5.8652 18.982 18.984 7.6524 7.6504-5.8652 5.8672c-5.6338 5.6342-14.248 7.1138-21.438 3.6797-2.0896-0.9977-4.6083-0.48653-6.1445 1.2441l-7.7441 8.7246c-1.8967 2.1375-1.6972 5.4627 0.43945 7.3594 0.98493 0.87457 2.2308 1.3144 3.459 1.3144 1.4352 0 2.8774-0.59994 3.9004-1.752l5.3906-6.0742c2.881 0.91072 5.8364 1.4414 8.791 1.4414 7.6052-9.6e-4 15.115-2.9574 20.721-8.5625l9.5488-9.5508 39.576-39.574a1.8365 1.8365 0 0 0 0-2e-3c2.0198-2.0218 2.021-5.3533 0-7.375-2.0208-2.0194-5.3535-2.0208-7.375 0l-35.885 35.887-3.9629-3.9629 35.887-35.885c2.0205-2.0212 2.0209-5.3541 0-7.375-2.0213-2.0199-5.354-2.0203-7.375 0l-35.887 35.885-3.9609-3.9609 35.885-35.887c2.0199-2.0205 2.0202-5.3528 0-7.373-2.0207-2.0193-5.3527-2.0197-7.373 0l-35.887 35.885-3.9629-3.9629 35.887-35.885c2.0205-2.0212 2.0209-5.3541 0-7.375-1.0111-1.0104-2.3572-1.5254-3.6875-1.5254z" fill="currentColor" stroke-width=".52356"/>
<path transform="matrix(.49076 0 0 .49076 -494.24 74.676)" d="m-204.68 758.06c-1.3143-0.0784-2.6732 0.35182-3.7305 1.291l-56.014 49.719c-0.43916 0.37473-0.84463 0.74942-1.2305 1.1348a1.7781 1.7781 0 0 0-2e-3 0c-8.2495 8.25-8.2495 21.715 0 29.965 3.9928 3.9923 9.3361 6.2051 14.982 6.2051 5.6467 0 10.991-2.2126 14.984-6.2051a1.7781 1.7781 0 0 0 0-2e-3c0.38712-0.3876 0.76103-0.79335 1.1348-1.2305l0.0234-0.0254 48.777-54.957c1.8751-2.1132 1.6801-5.4011-0.43359-7.2774-2.1136-1.8761-5.4023-1.681-7.2793 0.4336l-48.824 55.01a1.7781 1.7781 0 0 0-2e-3 2e-3c-0.0178 0.0202-0.046 0.0521-0.084 0.0976-0.21088 0.24841-0.40709 0.45984-0.60547 0.65821-2.0639 2.0643-4.7722 3.1875-7.6914 3.1875-2.9185 0-5.6252-1.1232-7.6895-3.1875-4.2523-4.2519-4.2523-11.129 0-15.381a1.7781 1.7781 0 0 0 0-2e-3c0.19974-0.20011 0.41257-0.39689 0.65821-0.60547l0.01-8e-3c0.0334-0.0281 0.0632-0.0538 0.082-0.0703a1.7781 1.7781 0 0 0 6e-3 -6e-3l56.043-49.742c2.1137-1.8763 2.3087-5.1642 0.4336-7.2773-0.93678-1.0553-2.2332-1.6481-3.5488-1.7266z" fill="currentColor" stroke-width="12.226"/>
<path transform="matrix(.49076 0 0 .49076 -494.24 74.676)" d="m-252.62 651.86c-9.022 0-16.944 2.9349-22.6 8.5898-8.2028 8.2032-10.524 20.798-6.9863 34.85 3.4108 13.545 11.945 27.503 23.992 39.551 7.6487 7.6487 17.867 11.879 28.684 11.879 5.8569 0 11.584-1.3211 16.855-3.7305l85.525 96.359c5e-3 5e-3 9e-3 0.0102 0.0137 0.0156l0.0215 0.0234c0.38314 0.44839 0.76745 0.86609 1.1602 1.2598a2.4692 2.4692 0 0 0 2e-3 2e-3c4.1195 4.119 9.6449 6.4082 15.471 6.4082 5.8262 0 11.353-2.2889 15.473-6.4082 8.5145-8.515 8.5145-22.426 0-30.941-0.396-0.396-0.81457-0.78007-1.2617-1.1621l-0.02344-0.0215-96.4-85.562c7.0044-15.261 4.0108-33.38-8.125-45.516-15.926-15.927-35.062-25.596-51.801-25.596zm0 11.691c13.011 0 29.538 8.1754 43.533 22.172 9.5312 9.5308 11.24 24.108 4.1738 35.566a2.4692 2.4692 0 0 0 0 2e-3c-1.4818 2.4033-1.0149 5.5652 1.0957 7.4394l99.812 88.592a2.4692 2.4692 0 0 0 4e-3 4e-3c0.029 0.0256 0.0664 0.0578 0.10938 0.0937l-0.0137-0.01c0.23997 0.2033 0.43999 0.38726 0.62695 0.57422 3.9869 3.9868 3.9872 10.418 0 14.404-1.9371 1.9371-4.4636 2.9844-7.2031 2.9844-2.7388 0-5.2642-1.0474-7.2012-2.9844a2.4692 2.4692 0 0 0-2e-3 -2e-3c-0.18457-0.18421-0.36809-0.38401-0.57227-0.625l0.01 0.0137c-0.10159-0.12166-0.13397-0.15376-0.0898-0.10351a2.4692 2.4692 0 0 0-0.01-0.01l-88.59-99.811c-1.1359-1.2791-2.7462-1.9668-4.373-1.9668-1.0555 0-2.1246 0.28889-3.0684 0.87109-4.5403 2.7998-9.7776 4.2812-15.152 4.2812-7.7306 0-14.948-2.9907-20.414-8.457-10.674-10.674-18.088-22.893-20.92-34.139-2.6554-10.546-1.0434-18.768 3.9141-23.725 3.3199-3.3203 8.168-5.166 14.33-5.166z" fill="currentColor" stroke-width="0"/>
<path transform="matrix(.49076 0 0 .49076 -494.24 74.676)" d="m-214.5 687.92c-0.82375-5e-5 -1.6445 0.31266-2.2734 0.9414-1.2583 1.2578-1.2597 3.2935-2e-3 4.5508 5.9257 5.9262 7 15.042 2.6094 22.162-0.93356 1.5137-0.46486 3.4942 1.0488 4.4277 0.52728 0.32504 1.1092 0.47852 1.6855 0.47852 1.0794 0 2.1338-0.54066 2.7422-1.5274 5.9648-9.6729 4.511-22.045-3.5352-30.092-0.62886-0.62842-1.4516-0.94134-2.2754-0.9414z" fill="currentColor" stroke-width=".52356"/>
<path transform="matrix(.49076 0 0 .49076 -494.24 74.676)" d="m-261.53 671.01c-0.80044 0-1.5997 0.3026-2.2109 0.91406-3.8963 3.8967-4.8973 10.775-2.7227 19.41 2.6671 10.592 9.671 21.98 19.729 32.037 4.5976 4.5971 10.705 7.125 17.207 7.125 1.7298 0 3.127-1.3954 3.127-3.125 0-1.7296-1.3972-3.125-3.127-3.125-4.8285 0-9.3714-1.8831-12.785-5.2969-9.2578-9.2582-15.684-19.598-18.088-29.145-0.76256-3.0285-1.0475-5.8224-0.86914-8.1445 0.17837-2.3221 0.81593-4.1809 1.9512-5.3164 1.2229-1.2229 1.2232-3.1975 0-4.4199-0.61157-0.61114-1.4106-0.91406-2.2109-0.91406z" fill="currentColor" stroke-width=".52356"/>
</g>
<rect x=".1971" y="35.178" width="215" height="215" fill="none" style="paint-order:stroke markers fill"/>
</g>
</svg>

