<svg stroke="currentColor" version="1.1" viewBox="0 0 215 216.77" xmlns="http://www.w3.org/2000/svg">
<g transform="translate(1.1224 -24.999)" fill="none">
<rect x="-1.1224" y="25.886" width="215" height="215" stroke="none" style="paint-order:stroke markers fill"/>
<g stroke="currentColor">
<path d="m106.6 238.77 61.552-8.1311v-41.929m-61.552-25.091v75.151l-61.811-8.1864v-41.998m127.7-36.45-44.428-9.0351m-21.461 20.518 14.882 34.088 56.673-11.404-5.6669-34.167-65.889 11.483m-21.748-20.374-44.562 9.4637-5.6823 33.813 56.36 11.161 15.631-34.064-66.301-10.802" stroke-linecap="round" stroke-linejoin="round" stroke-width="6" style="paint-order:stroke markers fill"/>
<g stroke-width="6">
<path d="m78.817 91.241 13.18 2.3855s7.8324 1.571 12.814 2.592c4.9817 1.0209 7.1128 1.4918 9.0912 1.8944 3.9567 0.80525 5.5623 3.6236 5.5623 3.6236s2.179 4.4864 1.4336 6.9597c-0.74546 2.4733-11.411 32.268-11.411 32.268" stroke-linecap="round"/>
<path d="m109.49 140.96c2.7787 1.8096 13.106 11.36 10.322 12.337-1.4958 0.36826-1.8794 0.53875-4.4963 0.1649-2.6169-0.37384-8.434-2.969-10.786-3.5791-4.2206-0.71045-6.3036 0.44923-7.8663-0.89477-2.4758-2.1869 1.275-7.0781 3.9957-9.3512"/>
<path d="m96.707 83.908s6.8051-0.8843 9.3191-0.55892c2.514 0.32536 4.7036 1.1388 5.2712 2.603 0.56767 1.4642 0.72988 3.0097 0.16215 5.5313-0.56768 2.5216-1.3786 5.7753-1.3786 5.7753" stroke-linecap="round"/>
<path d="m95.281 114.71-1.6216 7.4493c-2.5005 3.6847-3.486 7.4535-0.56799 8.4126 3.6494 1.0981 8.5151 0.1627 8.5151 0.1627"/>
<path d="m89.402 56.384c-0.48658 0.20336-0.22295 0.2847-0.58795 0.5084-0.36494 0.22368-0.7907 0.4067-0.81098 0.56938-0.02 0.16271-0.59128 0.86638-0.59128 0.86638-0.71718 0.41664-4.1102 4.332-5.6221 7.2302-1.4153 2.713-3.2871 5.1348-5.3715 7.4182-2.0844 2.2835-4.3814 4.4286-6.6471 6.5884-2.2656 2.1598-4.5 4.3343-6.5111 6.7046 0 0-3.4202 4.4433-4.7553 7.6541-0.95391 2.3181-1.191 5.9446-0.70444 7.4902 0.4866 1.5455 3.0415 5.2946 4.9747 6.5682s4.4043 2.1266 6.5142 2.9005 15.572 3.6209 19.383 3.7022c1.9058 0.0407 9.7048 0.38883 13.102 0.4471l2.3873 0.0409-3.5057 24.569" stroke-linecap="round"/>
</g>
<g stroke-width="6">
<path d="m93.213 88.636c-6.5152 2.8612-15.41 3.1999-31.671 0.83249" stroke-linecap="round" stroke-linejoin="round"/>
<path d="m101.77 115.03s-2.3156-5.0659-1.7479-9.4584c0.56765-4.3925 4.7847-9.3544 4.7847-9.3544"/>
<path d="m102.62 83.302s-1.9665 4.2274-1.6224 6.4131c0.34407 2.1857 1.2042 5.9315 1.2042 5.9315"/>
</g>
<g stroke-linecap="round">
<g stroke-width="6">
<path d="m101.07 77.119 7.5283-9.6809"/>
<path d="m93.213 88.636c3.5553-4.6014 7.8593-11.517 7.8593-11.517"/>
<path d="m101.67 49.281c0.77978 0.26784 5.4009 2.0547 5.7522 1.9558 1.5607-0.60793 2.5343-2.8617 2.863-3.6151 1.5712-4.3275 1.17-9.2412-0.38924-12.569-0.28176-0.49347-1.505-2.8095-2.63-4.0136s-3.8534-3.2772-7.9744-3.0176c-4.121 0.25955-8.6589 5.2288-8.7724 8.8636-0.11361 3.6348 1.0508 6.2916 1.2638 7.2032 0.10648 0.45582 0.22809 0.70264 0.5723 1.3872 0.34422 0.68458 0.91106 1.8069 1.0884 1.9893 0.35475 0.36481 0.69551 1.4427 0.69551 1.4427s0.18099 2.6931-0.51843 4.0251c-0.69939 1.332-3.9641 3.3868-3.9641 3.3868"/>
</g>
<g stroke-linejoin="round" stroke-width="3">
<path d="m92.369 62.367s-2.1059 2.6067-1.9339 4.1022c0.17213 1.4955 2.6799 3.8278 2.6799 3.8278"/>
<path d="m74.621 97.02s-5.3677 5.5524-8.3148 6.9597c-0.95351 0.45529-1.5381 0.55903-1.5381 0.55903"/>
<path d="m95.781 106.57s-0.97483 1.9556-3.7273 3.221c-2.7525 1.2654-4.3646 1.5392-4.3646 1.5392"/>
<path d="m81.503 99.666s0.15996 1.6295-6.4798 4.9466c-2.7773 1.3875-5.6536 2.1766-5.6536 2.1766"/>
</g>
<path d="m108.6 67.438c7.0052 1.2912 27.77 0.70524 27.77 0.70524 4.9116 4.4823 10.135 3.5435 14.076 0.97007 1.142-0.74557 1.2066-2.55 1.3949-3.8542 0.14559-1.027-3.741-2.8107-5.1609-3.3614-1.4199-0.5506-4.6036-0.37679-6.3615-0.72468-9.074-2.2861-17.852-3.3113-27.625-4.6309l-19.384-0.9984" stroke-width="6"/>
</g>
<path d="m106.67 64.828" stroke-width="6"/>
<path d="m105.58 34.802s-0.21153 0.8047-0.55158 1.326c-0.34013 0.52126-1.5872 2.8581-1.8388 3.0904-0.2515 0.23226-1.519 0.56011-1.5836 0.92945-0.0645 0.36932-0.13017 1.5548-0.31139 1.627-0.18127 0.0722-1.05-2e-3 -1.1527-0.29581-0.10278-0.29352-0.17042-3.1607-0.30454-3.4474-0.1339-0.28673-0.36074-0.79019-0.72573-0.80963-0.365-0.0195-1.7283 0.0463-2.1037 0.64759-0.3753 0.60128-0.84852 1.9344-0.80201 2.3323 0.0465 0.39784 0.0257 2.2775-0.0945 2.6326-0.12018 0.35508-0.69348 1.5586-0.96544 1.6966-0.27205 0.13802-2.6925 0.86755-2.6925 0.86755" stroke-linecap="round" stroke-width="3"/>
<path d="m108.6 67.438c0.72681-3.6699 1.151-7.3409 2.9593-10.648" stroke-linecap="round" stroke-width="6"/>
</g>
</g>
</svg>

