<svg width="100%" height="100%" version="1.1" viewBox="0 0 215 215" xmlns="http://www.w3.org/2000/svg">
<g transform="translate(-10.975 9.148)">
<rect x="10.975" y="-9.148" width="215" height="215" fill="none" style="paint-order:stroke markers fill"/>
<g transform="translate(409.35 -687.59)">
<path d="m-290.65 876.11 61.552-8.1311v-41.929m-61.552-25.091v75.151l-61.811-8.1864v-41.998m127.7-36.45-26.083-5.189m-39.806 16.672 14.882 34.088 56.673-11.404-5.6669-34.167-65.889 11.483m-39.462-16.989-26.848 6.0792-5.6823 33.813 56.36 11.161 15.631-34.064-66.301-10.802" fill="none" stroke="currentColor" stroke-linecap="round" stroke-linejoin="round" stroke-width="6" style="paint-order:stroke markers fill"/>
<path d="m-260.11 741.69a34.967 35.023 0 0 1-13.352 41.188 34.967 35.023 0 0 1-43.111-3.2941 34.967 35.023 0 0 1-6.9592-42.74 34.967 35.023 0 0 1 39.832-16.842" fill="none" stroke="currentColor" stroke-linecap="round" stroke-linejoin="round" stroke-width="6" style="paint-order:stroke markers fill"/>
<g transform="matrix(.2334 0 0 .23377 -284.45 692.13)" fill="none" stroke-width="21.405">
<path d="m30 22h62l-62 74h62m25-24h46l-46 55h46m-109 0h36l-36 43h36" stroke="currentColor" stroke-linecap="round" stroke-linejoin="round" stroke-width="21.405"/>
</g>
<path d="m-312.67 743c4.2931 2.6867 8.7539 2.9809 13.753 0" fill="none" stroke="currentColor" stroke-linecap="round" stroke-linejoin="round" stroke-width="6" style="paint-order:stroke markers fill"/>
<path d="m-273.19 743c-4.2932 2.6867-8.7539 2.9809-13.753 0" fill="none" stroke="currentColor" stroke-linecap="round" stroke-linejoin="round" stroke-width="6" style="paint-order:stroke markers fill"/>
<ellipse cx="-292.93" cy="761.74" rx="5.1233" ry="5.1315" fill="currentColor" fill-rule="evenodd" style="paint-order:stroke markers fill"/>
<path d="m-325.46 740.75-10.537-32.997-7.1928 2.4016" fill="none" stroke="currentColor" stroke-linecap="round" stroke-linejoin="round" stroke-width="6" style="paint-order:stroke markers fill"/>
<path d="m-283.7 720-51.709-24.221-10.766 5.8997" fill="none" stroke="currentColor" stroke-linecap="round" stroke-linejoin="round" stroke-width="6" style="paint-order:stroke markers fill"/>
<circle cx="-351.41" cy="709.01" r="7.0377" fill="none" stroke="currentColor" stroke-linecap="round" stroke-linejoin="round" stroke-width="6" style="paint-order:stroke markers fill"/>
</g>
</g>
</svg>

